/* XPM */
static char *_6238fb85f4e4fe2da0a081c4be90e096iykTKbFuCvascVz[] = {
/* columns rows colors chars-per-pixel */
"64 64 7 1 ",
"  c None",
". c #E30303",
"X c #954A00",
"o c #DD576D",
"O c #C49825",
"+ c #D0D88E",
"@ c #F3F3F3",
/* pixels */
"                                                                ",
"                                                                ",
"                                                                ",
"                                     XX                         ",
"                                    XXX                         ",
"                      XX            XX        XX                ",
"                      XX           XXX       XXX                ",
"                      XXX          XX       XXX                 ",
"                       XX         XXX      XXX                  ",
"                       XXX        XX      XXX                   ",
"                        XX       XXX     XXX                    ",
"                        XXX      XX     XXX                     ",
"           XX            XX            XXX            XX        ",
"           XXX                         XX            XXX        ",
"            XXX           XXXXXXXXXXX               XXX         ",
"             XXX          XXXXXXXXXXX              XXX          ",
"              XXX       XXOOOOOOOOOOOXX          XXXX           ",
"               XXX      XXOOOOOOOOOOOXX         XXXX            ",
"                XX    XX++++OOOOOOO++++XX      XXX              ",
"                      XX++++OOOOOOO++++XX     XXX               ",
"        XX          XX+++++++++++++++++++XX   XX                ",
"        XXX         XX+++++++++++++++++++XX            XX       ",
"         XXX        XXOOOOOO+++++++OOOOOOXX           XXX       ",
"          XX        XXOOOOOO+++++++OOOOOOXX          XXX        ",
"          XXX       XXOO@@ooOOOOOOO@@ooOOXX        XXXX         ",
"           XXX      XXOO@@ooOOOOOOO@@ooOOXX       XXXX          ",
"            XXX     XXOOoo..+++++++oo..OOXX      XXX            ",
"             XX     XXOOoo..+++++++oo..OOXX     XXX             ",
"                    XXOOOOOO+++++++OOOOOOXX     XX              ",
"                    XXOOOOOO+++++++OOOOOOXX                     ",
"                    XXOOOOOO+++++++OOOOOOXX                     ",
"                    XXOOOOOO+++++++OOOOOOXX                     ",
"                    XXOOOOOO+++++++OOOOOOXX                     ",
"           XXXXXXX  XXOOOOOO+++++++OOOOOOXX  XXXXXX             ",
"           XXXXXXX  XXOOOOOO+++++++OOOOOOXX  XXXXXX             ",
"                      XXOOOO+++++++OOOOXX                       ",
"                      XXOOOO+++++++OOOOXX                       ",
"                XXXXXXXXXXOO+++++++OOXXXXXXXXXX                 ",
"                XXXXXXXXXXOOOOOOOOOOOXXXXXXXXXX                 ",
"                XX++++XX++OOOOOOOOOOOOOXXOOOOXX                 ",
"                XX++++XX++OOOOOOOOOOOOOXXOOOOXX                 ",
"                  XXXXXX++++++++++++OOOXXXXXX                   ",
"                  XXXXXX++++++++++++OOOXXXXXX                   ",
"                      XX++++++++++++OOOXX                       ",
"                      XX++OOOOOOOOOOOOOXX                       ",
"                      XXXXXXXXXXXXXXXXXXX                       ",
"                      XXXXXXXXXXXXXXXXXXX                       ",
"                                                                ",
"                                                                ",
"                                                                ",
"                                                                ",
"                                                                ",
"                                                                ",
"                                                                ",
"                                                                ",
"                                                                ",
"                                                                ",
"                                                                ",
"                                                                ",
"                                                                ",
"                                                                ",
"                                                                ",
"                                                                ",
"                                                                "
};
