/* XPM */
static char *_8e9cecb786f442490625b0383d445fbUwXqROWuIubwNuny[] = {
/* columns rows colors chars-per-pixel */
"64 64 51 1 ",
"  c None",
". c black",
"X c #342503",
"o c #3F2805",
"O c #1C1C38",
"+ c #3F3A34",
"@ c #501E05",
"# c #401D12",
"$ c #473208",
"% c #513506",
"& c #4B2C11",
"* c #5A2817",
"= c #65321A",
"- c #6A3B19",
"; c #6A3A1D",
": c #4D3427",
"> c #4F382F",
", c #673E2B",
"< c #65420B",
"1 c #7A5217",
"2 c #5E4C2A",
"3 c #634223",
"4 c #7C462E",
"5 c #704F47",
"6 c #6F5040",
"7 c #7F796E",
"8 c #80520B",
"9 c #87580D",
"0 c #8D4820",
"q c #905C3A",
"w c #9B593A",
"e c #8E672D",
"r c #A16136",
"t c #CF790F",
"y c #895145",
"u c #DC8A34",
"i c #B48D52",
"p c #8F837A",
"a c #DE955C",
"s c #DAA467",
"d c #F0B274",
"f c #FDB076",
"g c #B4A080",
"h c #B7B0A4",
"j c #E2B48D",
"k c #C0B4A4",
"l c #F1D595",
"z c #FFD2AD",
"x c #FFD4B1",
"c c #EEE0D0",
"v c white",
/* pixels */
"                                                                ",
"                                                                ",
"                          %%%%%<<                               ",
"                          %%%%%%<<                              ",
"                          %%$$$%%<                              ",
"                          XXXXXX++                              ",
"                       %%$$$$$$$%%<<                            ",
"                          uuuuuu88                              ",
"                          99u99l88                              ",
"                          .vu.vl8l                              ",
"                          ululllgl                              ",
"                          gggggggu                              ",
"                          ggllggu                               ",
"                           ggggu                                ",
"                            uuuu                                ",
"                         --ouuudoo%%                            ",
"                        --Ocdddc----%                           ",
"                        -*O2udcO-----%                          ",
"                        -*rOcucOq----%                          ",
"                       --*rO3cOqq&----%                         ",
"                       -**rO3kOq&O----%                         ",
"                       -**rOk3Oq;O&----%                        ",
"                      --*yrOkpOq;&O----%                        ",
"                      --*yrOk3Oqq;O-----%                       ",
"                      --*yrOc3O;q;&O----%                       ",
"                      --*yrOckOqq;&OO---%                       ",
"                      -**yrOckO;qq;&O---%%                      ",
"                     --**yrOckOqqq;&OO---%                      ",
"                     --**yrOckOqqq;; O---%                      ",
"                     --**yrOckOqqq;; O---%                      ",
"                     --**yrOckOqqq;;  O---                      ",
"                     --**yrOckOqqqq;  O---                      ",
"                     OOOOrrOcckO;;;O  O---                      ",
"                     lllOrO5h7:O@@@@O OOOO                      ",
"                     tss Oaaaaa6OOOOO llll                      ",
"                     tss aaaaa:0%111e ssss                      ",
"                     sts jaazz:z%111e stss                      ",
"                     st  jaaazz=%eeeiststs                      ",
"                     sst jaaazz=f%ee,ttss                       ",
"                         jjaaaa=4ff,, s                         ",
"                         jjjaa j===,w                           ",
"                         xjjaa jjjjxw                           ",
"                         xxjaa ajjxx                            ",
"                         xxjaa ajjxx                            ",
"                         xxjja jjjxx                            ",
"                         jxxja jjjjx                            ",
"                         jjjja  ajjx                            ",
"                          ajjj  aajj                            ",
"                          jajj  jajjj                           ",
"                          jjaj  jjajj                           ",
"                          jjja  xjjaa                           ",
"                          ajjj  xxjjj                           ",
"                          ajjj  jjxxj                           ",
"                          ajxj  ajjjj                           ",
"                          jaax  jaaaj                           ",
"                          ###>  jjjjj                           ",
"                         ####>   ##>                            ",
"                        #####>  >###>                           ",
"                                ####>                           ",
"                                                                ",
"                                                                ",
"                                                                ",
"                                                                ",
"                                                                "
};
