/* XPM */
static char *_f73ceb6e3934708ee0b909a37931014T1INXZ5TiuiQeDzS[] = {
/* columns rows colors chars-per-pixel */
"64 64 10 1 ",
"  c #0A531E",
". c #0C6725",
"X c #8A5819",
"o c #8D5919",
"O c #A46E00",
"+ c #AD6F1F",
"@ c #CB8A01",
"# c #CC8A00",
"$ c #FFAC00",
"% c #D88A26",
/* pixels */
"%%.......%%%$$$$$$$$$$...$++%..%%%%%%%%%%%...++%%%%%%%%%%...+%%%",
"%%%%%%...%%%$$$$$$$$$$.. #+%%..%%%%%%%%%%%..++%%%%%%%%%%%...+%%%",
"%%%%%...%%%%%%%%%%%%%.. +%++...%%%%%%%%%%%..++%%%%%%%%%%%%..+%%%",
"%%%%%...%%%%%%%%%%%%%.. %%+% ..%%%%%%%%%%%..++%%%%%%%%%%%...+%%%",
"%%%%...%%%%%%%%%%%%%%..+%%+% ...%%%%%%%%%%...+%%%%%%%%%%....+$$%",
"%%%%...%%%%%%%%%%%%%...+%%+++......%%%%%%%... +%%%%%%%%....++$$%",
"%%%%..%%%%%%%%%%%%%%.. +%%%+++.........%%%%...++%%%%%%....++%%%%",
"%%%%..%%%%%%%%%%%%%...+%%%%+++++%..............++%%%%... +%%%%%%",
"%%%%..%%%%%%%%%%%%....+%%%%%++++++%%%%..........  +%%.. +%%%%%%%",
"$$%%..%%%%%%%%%%.....%+%%%%%%%+++%++++++++%%%%.... %.. +%%%%%%%%",
"$$%%%%%%%%%%%......%%++%%%%%%%%%+##++%%%%++++++%......+%%%%%%%%%",
"%%%$$%%%%%%.......%+++%%%%%%%%%%%$$%++++++++%%+++.....%%%%%%%%%%",
"%%%$$%%%%%.....%+++%%%%%%%%%%%%%%%%%%%%%%++#O+%%++....%%%%%%%%%%",
"%%%%%%%%.....+++%%%%%%%%%%%%%%%%%%%%%%%%%%%$#+o+++ ....%%%%%%%%%",
"%%%%%%%... ++%%%%%%%%%%%%%%%%%%%%%%%%%%%%%%%%%++%%+....%%%%%%%%%",
"%%%%%%... +%%%%%%%%%%%%%%%%%%%%%%%%%%%%%%%%%%%%++++ ...%%%%%%%%%",
"%%%%%..  +%%%%%%$$%%%%%%%%%%%%%%%%%%%%%%%%%%%%%%%+++....%%%%%%%%",
"%%%...  %%%%%%++$$%%%%%%%%%%%%%%%%%%++%%%%%%%%%%%%+++....%%%%%%%",
".%....+%%%%%%%+++%%%%%%%%%%%%%%%%%%%++%%%%%%%%%%%%%+XX....%%%%%%",
".+...++%%%%%%%++++%%%%%%%%%%%%%%%%%%+++%%%%%%%%%%%%%+X+ ...%%%%%",
". ..++%%%%%%%%%++++%%%%%%%%%%%%%%%%%%+++%%%%%%%%%%%%+X++....%%%%",
"... +%%%%%%%%%++++++%%%%%%%%%%%%%$$%%..+++%%%%%%%%+++++.........",
"...+%%%%%%%%%%++. .++%%%%%%%%%%%%$$%%...%++%%%%%+++%.........  .",
"... ++%%%%%%%%%%  ..++%%%%%%%%%%%%%%%.....+++++++%......++++++%%",
". .  ++++%%%%%%%%.... +%%%%%%%%%%%%%%%......%%%%......%%..+%%%%%",
".... .%%%%%%%%%%$$%... +%%%%%%%%%%%%%%%%...........%%%%+...%%%%%",
"..%.. %%%%%%%%%%$$$%...++%%%%%%%%%%%%%%%$$.......%%%%%%+...%%%%%",
"..%%..++%%%%%%%%%$$%%...++%%%%%%%%%%%%%%%%%%....%%%%%%%++...%%%%",
"..$$..++++%%%%%%%%%%%%... ++%%%%%%%%%%%%%%%.......%%%%%%+%..%%%%",
"..$$..%+%%%%%%%%%%%%%%%....++%%%%%%%%++%%....%.....%%%%%++...%%%",
"..%%...+%%%%%%%%%%%%%%%%.....++++%%%%++.....%%%%...%%%%%%++.....",
"..%%...+%%%%%%%%%%%%%%%%%%......+++++.....%%%%%%%...%%%%%%+ ....",
"..$$...+%%%%%%%%%%%%%%%%%%%%.............%%%%%%%$$..%%%%%%%+%...",
"..$$... +%%%%%%%%%%%%%%%%%%%%%.........%% ..%%%%$$...%%%%%%%....",
"..%%.... ++%%%%%%%%%%%%%%%%%%%%%%%%%%%%%+ ..%%%%%....%%%%%+%....",
".$%%......++%%%%%%%%%%%%%%%%%%%%%%%%%%%+ ..%%%%%......%%%%++  +.",
".%%%..+ ...++%%%%%%%%%%%+++%%%%%%%%%%%++...%%%%....%...%%%%%+++.",
"..%%..++%... ++%%%%%%%+  . ++%%%%%%%%%+...%%%%....%%...%%%%%%%..",
"..%%..$@%%....+++++++  ......+%%%%%%%  ...%%%....%%%%...........",
"..%%..$#%%%..................%%%%%%%% ..........%%%%%%..........",
"..%%...++%%%..........%%%%%%%%%%%%%%%+.........%%%%%%%%%%%%+  ..",
"..%....%++%%%%%%%$$%%%%%%%%%%%%%%%%%%+...$%%%%%%%%%%%%%%%%%%%  .",
"..%...... +++%%%%%%%%%%%%%%%%%%%%%%%%@...%%%%%%%%%%%%%%%%%%%%  .",
".%...%......+++%%%%%%%%%%%%%%%%%%%++  ..%%++++++%%%%%%%%%%%%% ..",
"....%%%%.....%++%%%%%%%%%%%%%%%%++ ....%%+ .... ++%%%%%%%%%%+ ..",
"...%%%%%%%.....++%%%%%%%%%%%%%%++.....%%  ....... +%%%%%%%%%+...",
"..%%%%%%%%%%....+%%%%%%%%%%%%%+ ....%%%% ..%%%%... %%%%%%%%%+...",
".$%%%%%%%%%%%...++%%%%%%%%%%%++...%%%%% ..%%%%%%.. +%%%%%%%++...",
".$%%%%%%%%%%%%..%+%%%%%%%%%+++...%%%%%% .%%%%%%%%.. ++%%%%%+ ...",
".%%%%%%%%%%%%%..%+%%%%%%%%%+%....%%%%%+%%%%%%%%%%....++%%%%+....",
".%%%%%%%%%%%....++%%%%%%%%%+....%..%%%%%%%%%%%%%%%..... ++%%....",
".%%%%%%%%%%.....X%%%..%%%+  ...%%..%%%%%%%%%%%%%%%%.......++....",
".%%%%%%%%%....$OX+%%...%%+....+%...%%%%%%%%%%%%%%%%%%%..........",
".%%%%%%%%....++X+++%...%%+ .%+%%...%%%%%$$%%%%%%%%%%%%%%%.......",
".%%%%%%....+X+%++++.......++++%%...%%%%%$$%%%%%%%%%%%%%%%%%%%...",
".%%%%%....XXo+%%+++ .... .++%%%..%%%%%%%%%%%%%%%%%%%%%%%%%%%....",
".%%%%%...+X.. +%+++ ...  %%%%%%..%%%%%%%%%%%%%+++%%%%%%%%.......",
".%%%%%..%@$...+%%++++. +%+%%%%%.....%%%%%%%%+++%++%%%%%.........",
".%%%%%..+@$%%..+%%+++..+++%%%%%.......%%%%+++%..%+%%%%.....%%...",
"..%%%...+%%%%.. %%%++..X+%%%%++++++...%+++%......+%%%%...%%%%%..",
"..%%%.. +%%%%%.  %%%%..+%%%%+ .......++ .........+%%%...+%%%%...",
"...%%..++$$%%%%..++%...+++  .........%%.........%++++..++%%%%...",
".......##$$%%%%.................................................",
".......$$%%%%%%....%..............%............................."
};
