/* XPM */
static char *_93876c6742a42e9e3c6bd886de36741LgoypEXTHyjupWGL[] = {
/* columns rows colors chars-per-pixel */
"64 64 6 1 ",
"  c black",
". c #30A15F",
"X c #1F8962",
"o c #1B9C95",
"O c #2BBD97",
"+ c #B5B7B9",
/* pixels */
"        XX             oo      oo  XXX                          ",
"  ++++++XX++   ++++++++oo  ++++++ooXXX++oo++  ++++++++   ++XX++ ",
"  ++++++XX++   ++++++++oo  ++++++ooXXX++oo++  ++++++++   ++XX++ ",
"  ++++++XX++   ++++++++oo  ++++++ooXXX++oo++  ++++++++   ++XX++ ",
"  ++++++XX++   ++++++++oo  ++++++ooXXX++oo++  ++++++++   ++XX++ ",
"  ++++++XX++   ++++oooooo  ++++ooooXXX++oo++  ++++++++   XX++++ ",
"        XX         oooo        ooXXXXX    oo          XXX       ",
"        XX         oooo        ooXXXXX    oo          XXX       ",
"  ++++++XXXX+++++oo    ++++  ++ooXX+++++  oo++++  ++++XXX++++++ ",
"  ++++++  XXOOO++oo    ++++++++ooXX+++++  ++oo++  XXXXOOO++++++ ",
"  ++++++  XXOOO++oo    ++++++++ooXX+++++  ++oo++  XXXXOOO++++++ ",
"  ++++++  XXOOO++oo    ++++++++ooXX+++++  ++oo++  XXXXOOO++++++ ",
"  ++++++  XXOOO++oo    ++++++++ooXX+++++  ++oo++  XXXXOOO++++++ ",
"  ++++++  XXOOO++oo    ++++++++ooXX+++++  ++oo++  XXXXOOO++++++ ",
"        OOOOXXX  oooooo        oo  XXX      oooo  XXXXOOO       ",
"        OOOOXXX  oooooo        oo  XXX      oooo  XXXXOOO       ",
"  ++++OOOO+++++XX++oooo++++  oooo+++++XX++++++oo++XXXXOOOOO++++ ",
"  ++++OO+++++++XXoooooo++++  oo+++++++XX++++++ooXXXXXX   OO++++ ",
"  ++++OO+++++++XXoooooo++++  oo+++++++XX++++++ooXXXXXX   OO++++ ",
"  ++++OO+++++++XXoooooo++++  oo+++++++XX++++++ooXXXXXX   OO++++ ",
"      OOOO       XXoooo      oo       XX        oo       OOOO   ",
"      OOOO       XXoooo      oo       XX        oo       OOOO   ",
"      OOOO       XXoooo      oo       XX        oo       OOOO   ",
"  ++++++OO++   ++++oooo++  ++oo++  +++XX++++++  oo+++++++++OO++ ",
"  ++++++OO++   ++++oooo++  ++oo++  +++XX++++++  oo+++++++++OO++ ",
"  ++++++OO++   ++oo++++XX  ++oo++  +++XXXX++++XXoo+++++++++OO++ ",
"  ++++++OO++   ++oo++++XX  ++oo++  +++XXXX++++XXoo+++++++++OO++ ",
"      OO         oo    XX    oo         XX    XX  oooo       OO ",
"      OO         oo    XX    oo         XX    XX  oooo       OO ",
"  ++++OO++  +++++ooooooXXXX++  oo++   ++XX++XXXX++oooo+++++++OO ",
"  ++++OO++  +++++ooooooXXXX++  oo++   ++XX++XXXX++oooo+++++++OO ",
"  ++++OO++  +++++ooooooXXXX++  oo++   ++XX++XXXX++oooo+++++++OO ",
"  ++++OO++  +++++ooooooXXXX++  oo++   ++XX++XXXX++oooo+++++++OO ",
"  ++++OO+++++++++oo    ++XX++  oo+++++++XX++XX++++    ooo++++OO ",
"      OO         oo      XX    oo         XXXX        ooo       ",
"      OO         oo      XX    oo         XXXX        ooo       ",
"  ++++OO+++++++  oo++++++XX++oooo++   ++++XX++  ++++++ooooo++++ ",
"  ++++OO+++++++  oo++++++XXXXoo++++   ++++XX++  +++++++++oo++++ ",
"  ++++OO+++++++  oo++++++XXXXoo++++   ++++XX++  +++++++++oo++++ ",
"  ++++OO+++++++  oo++++++XXXXoo++++   ++++XX++  +++++++++oo++++ ",
"  ++++OO+++++++  oo++++++XXXXoo++++   ++++XX++  +++++++++oo++++ ",
"      OO         oo        XXoo           XX             oo     ",
"      OO         oo        XXoo           XX             oo     ",
"  ++++OO++  +++++oo    ++++++oo  +++++++  XX++  ++    +++oo++++ ",
"  ++++OO++  +++++oo    ++++ooXX  +++++++  XX++++++    +++oo++++ ",
"  ++++OO++  +++++oo    ++++ooXX  +++++++  XX++++++    +++oo++++ ",
"  ++++OO++  +++++oo    ++++ooXX  +++++++  XX++++++    +++oo++++ ",
"      OO       oo          ooXX           XX             oooo   ",
"      OO       oo          ooXX           XX             oooo   ",
"      OO       oo          ooXX           XX             oooo   ",
"  ++++OO  +++++++oo++++++++..++XX++...++++XX..++  ++++...++oo++ ",
"  ++++OO  +++++++oo++++++++..++XX++...++++XX..++  ++++...++oo++ ",
"  ++++++++++.....oo++++++..oo++++++...++++XX....  ++++...++oo++ ",
"  ++++++++++.....oo++++++..oo++++++...++++XX....  ++++...++oo++ ",
"  ++++++++++.....oo++++++..oo++++++...++++XX....  ++++...++oo++ ",
"            ...          ..        ...    XX  ....    ...    oo ",
"            ...          ..        ...    XX  ....    ...    oo ",
"  ++++++++..   ++++++++....oo++  ..+++++++++XX++...........++++ ",
"  ++++++++..   ++++++++....oo++  ..+++++++++XX++...........++++ ",
"  ++++++++..   ++++++++....oo++  ..+++++++++XX++...........++++ ",
"  oooooo..ooooooooooooooooooooooooooooooooooooooooooooooooooooo ",
"  oooooo..ooooooooooooooooooooooooooooooooooooooooooooooooooooo ",
"                                                                ",
"                                                                "
};
